<svg width="53" height="50" viewBox="0 0 53 50" fill="none" xmlns="http://www.w3.org/2000/svg">
<path fill-rule="evenodd" clip-rule="evenodd" d="M44.6397 49.1413C44.5613 49.1485 44.4829 49.1525 44.4045 49.1535L44.4067 49.024L8.67625 31.0262L45.0652 11.3263L45.0686 11.1307C45.1791 11.1294 45.2893 11.1343 45.3992 11.1454L45.6265 11.0224L45.6253 11.177C46.4144 11.318 47.1847 11.7786 47.9069 12.5442C48.798 13.4889 49.5985 14.8796 50.2625 16.6368C50.9265 18.3939 51.441 20.4833 51.7768 22.7854C52.1126 25.0875 52.2629 27.5574 52.2193 30.054C52.1757 32.5506 51.939 35.0251 51.5226 37.3361C51.1063 39.6471 50.5185 41.7494 49.7928 43.5229C49.0672 45.2964 48.2178 46.7065 47.2933 47.6726C46.6562 48.3384 45.992 48.7843 45.319 49.001L45.3151 49.4815L44.6397 49.1413Z" fill="#E6DCA7"/>
<path d="M44.9259 17.9699C50.5672 24.4296 49.2217 36.603 44.5167 41.395" stroke="#E5E5E5" stroke-width="5"/>
<ellipse cx="3.18167" cy="3.45302" rx="3.18167" ry="3.45302" transform="matrix(-0.0174642 0.999847 -0.999931 0.0117683 41.9509 33.6185)" fill="#EBA08F"/>
<ellipse cx="3.18167" cy="3.30289" rx="3.18167" ry="3.30289" transform="matrix(-0.0174642 0.999847 -0.999931 0.0117683 35.207 24.4454)" fill="#EBA08F"/>
<path d="M22.2305 36.0266C22.5145 35.5365 22.7002 34.9984 22.7771 34.4429C22.854 33.8875 22.8205 33.3256 22.6787 32.7893C22.5368 32.2531 22.2894 31.753 21.9504 31.3175C21.6114 30.8821 21.1875 30.52 20.703 30.2517C20.2184 29.9834 19.6827 29.8143 19.1264 29.754C18.5701 29.6937 18.0041 29.7433 17.4607 29.9002C16.9173 30.057 16.4071 30.318 15.9594 30.6681C15.5117 31.0182 15.1351 31.4507 14.8511 31.9408L18.5408 33.9837L22.2305 36.0266Z" fill="#EBA08F"/>
<path d="M33.5035 18.8951C33.7476 19.3909 34.089 19.8312 34.5081 20.1908C34.9271 20.5504 35.4158 20.8223 35.946 20.9908C36.4763 21.1594 37.0378 21.2214 37.5985 21.1733C38.1591 21.1252 38.708 20.968 39.2138 20.7105C39.7196 20.4531 40.1723 20.1005 40.5462 19.6728C40.92 19.2452 41.2076 18.751 41.3927 18.2183C41.5777 17.6856 41.6564 17.1249 41.6244 16.5683C41.5925 16.0116 41.4503 15.4699 41.2062 14.974L37.3549 16.9345L33.5035 18.8951Z" fill="#EBA08F"/>
<path d="M42.0747 26.5331L41.0661 28.423L39.1145 28.4459L38.1716 26.579L39.1802 24.6891L41.1317 24.6662L42.0747 26.5331Z" fill="#CACF94"/>
<path d="M30.8041 35.9182L29.7955 37.8081L27.8439 37.831L26.901 35.9641L27.9095 34.0742L29.8611 34.0513L30.8041 35.9182Z" fill="#CACF94"/>
<path fill-rule="evenodd" clip-rule="evenodd" d="M44.6397 49.1413C44.5613 49.1485 44.4829 49.1525 44.4045 49.1535L44.4067 49.024L8.67625 31.0262L45.0652 11.3263L45.0686 11.1307C45.1791 11.1294 45.2893 11.1343 45.3992 11.1454L45.6265 11.0224L45.6253 11.177C46.4144 11.318 47.1847 11.7786 47.9069 12.5442C48.798 13.4889 49.5985 14.8796 50.2625 16.6368C50.9265 18.3939 51.441 20.4833 51.7768 22.7854C52.1126 25.0875 52.2629 27.5574 52.2193 30.054C52.1757 32.5506 51.939 35.0251 51.5226 37.3361C51.1063 39.6471 50.5185 41.7494 49.7928 43.5229C49.0672 45.2964 48.2178 46.7065 47.2933 47.6726C46.6562 48.3384 45.992 48.7843 45.319 49.001L45.3151 49.4815L44.6397 49.1413Z" fill="#F9D65A"/>
<path d="M44.9259 17.9699C50.5672 24.4296 49.2217 36.603 44.5167 41.395" stroke="#FFFEFE" stroke-width="4"/>
<ellipse cx="3.18167" cy="3.45302" rx="3.18167" ry="3.45302" transform="matrix(-0.0174642 0.999847 -0.999931 0.0117683 41.9509 33.6185)" fill="#EBA08F"/>
<ellipse cx="3.18167" cy="3.30289" rx="3.18167" ry="3.30289" transform="matrix(-0.0174642 0.999847 -0.999931 0.0117683 35.207 24.4454)" fill="#EBA08F"/>
<path d="M22.2305 36.0266C22.5145 35.5365 22.7002 34.9984 22.7771 34.4429C22.854 33.8875 22.8205 33.3256 22.6787 32.7893C22.5368 32.2531 22.2894 31.753 21.9504 31.3175C21.6114 30.8821 21.1875 30.52 20.703 30.2517C20.2184 29.9834 19.6827 29.8143 19.1264 29.754C18.5701 29.6937 18.0041 29.7433 17.4607 29.9002C16.9173 30.057 16.4071 30.318 15.9594 30.6681C15.5117 31.0182 15.1351 31.4507 14.8511 31.9408L18.5408 33.9837L22.2305 36.0266Z" fill="#EBA08F"/>
<path d="M33.5035 18.8951C33.7476 19.3909 34.089 19.8312 34.5081 20.1908C34.9271 20.5504 35.4158 20.8223 35.946 20.9908C36.4763 21.1594 37.0378 21.2214 37.5985 21.1733C38.1591 21.1252 38.708 20.968 39.2138 20.7105C39.7196 20.4531 40.1723 20.1005 40.5462 19.6728C40.92 19.2452 41.2076 18.751 41.3927 18.2183C41.5777 17.6856 41.6564 17.1249 41.6244 16.5683C41.5925 16.0116 41.4503 15.4699 41.2062 14.974L37.3549 16.9345L33.5035 18.8951Z" fill="#EBA08F"/>
<path d="M42.0747 26.5331L41.0661 28.423L39.1145 28.4459L38.1716 26.579L39.1802 24.6891L41.1317 24.6662L42.0747 26.5331Z" fill="#CACF94"/>
<path d="M30.8041 35.9182L29.7955 37.8081L27.8439 37.831L26.901 35.9641L27.9095 34.0742L29.8611 34.0513L30.8041 35.9182Z" fill="#CACF94"/>
<g filter="url(#filter0_f_102_4)">
<path d="M42.8138 10.2932L6 28.6862" stroke="#D98A78" stroke-width="7"/>
</g>
<defs>
<filter id="filter0_f_102_4" x="0.384415" y="3.24855" width="48.045" height="32.4823" filterUnits="userSpaceOnUse" color-interpolation-filters="sRGB">
<feFlood flood-opacity="0" result="BackgroundImageFix"/>
<feBlend mode="normal" in="SourceGraphic" in2="BackgroundImageFix" result="shape"/>
<feGaussianBlur stdDeviation="2" result="effect1_foregroundBlur_102_4"/>
</filter>
</defs>
</svg>
