<svg width="42" height="29" viewBox="0 0 42 29" fill="none" xmlns="http://www.w3.org/2000/svg">
<rect x="0.5" y="0.5" width="41" height="28" rx="3.5" fill="white"/>
<path d="M8.55221 11C8.80081 11.4105 8.91288 11.8333 8.91288 12.3675C8.91288 14.071 7.45834 16.2841 6.27782 17.8381H3.58141L2.5 11.373L4.861 11.1489L5.43275 15.7492C5.96699 14.879 6.62624 13.5116 6.62624 12.5793C6.62624 12.0689 6.53881 11.7213 6.40215 11.4351L8.55221 11Z" fill="#008CFF"/>
<path d="M11.6122 13.8472C12.0467 13.8472 13.1405 13.6485 13.1405 13.027C13.1405 12.7285 12.9294 12.5796 12.6807 12.5796C12.2455 12.5796 11.6745 13.1014 11.6122 13.8472ZM11.5625 15.0782C11.5625 15.8371 11.9845 16.1349 12.5441 16.1349C13.1535 16.1349 13.7369 15.986 14.4952 15.6007L14.2096 17.5399C13.6753 17.8009 12.8426 17.975 12.0344 17.975C9.98422 17.975 9.25047 16.7319 9.25047 15.1779C9.25047 13.1637 10.444 11.025 12.9047 11.025C14.2595 11.025 15.0171 11.7838 15.0171 12.8405C15.0172 14.544 12.8304 15.0659 11.5625 15.0782Z" fill="#008CFF"/>
<path d="M21.8307 12.4924C21.8307 12.741 21.7931 13.1016 21.7554 13.3373L21.0471 17.8133H18.7481L19.3943 13.7102C19.4066 13.5989 19.4442 13.3749 19.4442 13.2506C19.4442 12.9521 19.2577 12.8777 19.0335 12.8777C18.7357 12.8777 18.4372 13.0143 18.2384 13.114L17.5054 17.8134H15.1935L16.2497 11.112H18.2506L18.2759 11.6469C18.748 11.3361 19.3696 11 20.2515 11C21.4201 10.9999 21.8307 11.5968 21.8307 12.4924Z" fill="#008CFF"/>
<path d="M28.6558 11.7586C29.3143 11.2866 29.9361 11.025 30.7932 11.025C31.9736 11.025 32.3843 11.6219 32.3843 12.5175C32.3843 12.7661 32.3466 13.1267 32.3092 13.3624L31.6015 17.8384H29.3019L29.9606 13.6486C29.9726 13.5366 29.9982 13.4 29.9982 13.3133C29.9982 12.9773 29.8116 12.9027 29.5874 12.9027C29.3019 12.9027 29.0164 13.027 28.8045 13.1391L28.0716 17.8385H25.7727L26.4311 13.6486C26.4432 13.5367 26.4681 13.4 26.4681 13.3134C26.4681 12.9773 26.2813 12.9028 26.058 12.9028C25.7595 12.9028 25.4616 13.0394 25.2628 13.1392L24.5292 17.8385H22.2181L23.2742 11.1371H25.2507L25.3128 11.6966C25.7727 11.3613 26.3937 11.0252 27.2263 11.0252C27.9473 11.025 28.4192 11.3358 28.6558 11.7586Z" fill="#008CFF"/>
<path d="M36.959 13.7105C36.959 13.1634 36.8221 12.7905 36.4124 12.7905C35.5051 12.7905 35.3187 14.3942 35.3187 15.2145C35.3187 15.8369 35.4929 16.2221 35.9026 16.2221C36.7601 16.2221 36.959 14.5308 36.959 13.7105ZM32.9824 15.1155C32.9824 13.0022 34.1007 11.0247 36.6735 11.0247C38.6122 11.0247 39.3209 12.1689 39.3209 13.748C39.3209 15.8368 38.2147 18 35.5797 18C33.6286 18 32.9824 16.7193 32.9824 15.1155Z" fill="#008CFF"/>
</svg>
